<svg xmlns="http://www.w3.org/2000/svg" width="38" height="38" viewBox="0 0 38 38">
  <g id="door" transform="translate(-177 -83)">
    <g id="Groupe_2330" data-name="Groupe 2330" transform="translate(179 85)">
      <g id="Groupe_168" data-name="Groupe 168" transform="translate(0 0)">
        <path id="Tracé_31" data-name="Tracé 31" d="M430.618,193.53H417.4a3.388,3.388,0,0,1-3.6-3.12V179.275a.5.5,0,0,1,1,0V190.41a2.4,2.4,0,0,0,2.6,2.12h13.219a2.4,2.4,0,0,0,2.6-2.12V179.224a.5.5,0,0,1,1,0V190.41A3.388,3.388,0,0,1,430.618,193.53Z" transform="translate(-406.947 -159.03)" fill="#fff"/>
        <path id="Tracé_32" data-name="Tracé 32" d="M439.383,170.456a.5.5,0,0,1-.286-.09l-8.051-5.636v-6.872a4.288,4.288,0,0,0-4.236-4.283,25.975,25.975,0,0,1-9.941,0,4.288,4.288,0,0,0-4.236,4.283v6.924l-7.558,5.576a.5.5,0,1,1-.594-.8l7.152-5.276v-6.419a5.289,5.289,0,0,1,5.283-5.283h.049l.048.009a24.98,24.98,0,0,0,9.655,0l.048-.009h.049a5.289,5.289,0,0,1,5.283,5.283v6.351l7.624,5.337a.5.5,0,0,1-.287.91Z" transform="translate(-404.778 -153.075)" fill="#fff"/>
        <path id="Tracé_33" data-name="Tracé 33" d="M430.439,165.584h-.083l-.079-.027a16.319,16.319,0,0,0-5.3-.918,15.733,15.733,0,0,0-5.232.916l-.081.028h-.085a2,2,0,0,1-1.956-2.447,5.334,5.334,0,0,1,5.2-4.16h4.367a5.335,5.335,0,0,1,5.191,4.1l.009.037a2.005,2.005,0,0,1-1.952,2.466Zm-5.466-1.945a17.289,17.289,0,0,1,5.541.942,1.005,1.005,0,0,0,.9-1.23l-.009-.037a4.319,4.319,0,0,0-4.219-3.337h-4.367a4.311,4.311,0,0,0-4.229,3.38,1,1,0,0,0,.9,1.224A16.709,16.709,0,0,1,424.974,163.639Z" transform="translate(-407.805 -154.533)" fill="#fff"/>
        <path id="Tracé_34" data-name="Tracé 34" d="M427.3,190.8h-6.35a3.41,3.41,0,0,1-3.4-3.091,5.847,5.847,0,0,0-.112-.7l-.416-1.883v-.055a2.066,2.066,0,0,1,2.019-2.063,31.5,31.5,0,0,1,5.2-.444,28.6,28.6,0,0,1,5.035.444,2.066,2.066,0,0,1,2.016,2.063v.062l-.46,1.82a8.136,8.136,0,0,0-.158.9A3.42,3.42,0,0,1,427.3,190.8Zm-9.272-5.782.392,1.772a6.855,6.855,0,0,1,.131.826,2.4,2.4,0,0,0,2.4,2.184h6.35a2.417,2.417,0,0,0,2.388-2.083,8.937,8.937,0,0,1,.179-1.012l.428-1.694a1.065,1.065,0,0,0-1.062-1.007h-.045l-.044-.008a27.587,27.587,0,0,0-4.9-.436,30.509,30.509,0,0,0-5.073.437l-.041.007h-.042A1.065,1.065,0,0,0,418.026,185.022Z" transform="translate(-406.957 -159.587)" fill="#fff"/>
      </g>
    </g>
    <rect id="Rectangle_1392" data-name="Rectangle 1392" width="38" height="38" transform="translate(177 83)" fill="#fff" opacity="0"/>
  </g>
</svg>
