<svg xmlns="http://www.w3.org/2000/svg" xmlns:xlink="http://www.w3.org/1999/xlink" width="70" height="70" viewBox="0 0 70 70">
  <defs>
    <linearGradient id="linear-gradient" x1="0.207" y1="0.083" x2="0.891" y2="0.838" gradientUnits="objectBoundingBox">
      <stop offset="0" stop-color="#e1e0de"/>
      <stop offset="0.418" stop-color="#fff"/>
      <stop offset="1" stop-color="#e1e0de"/>
    </linearGradient>
  </defs>
  <g id="white" transform="translate(-445 -171)">
    <g id="Groupe_2204" data-name="Groupe 2204" transform="translate(449.281 175)">
      <circle id="Ellipse_105" data-name="Ellipse 105" cx="23.525" cy="23.525" r="23.525" transform="translate(7.475 7.475)" fill="url(#linear-gradient)"/>
      <path id="Ellipse_108" data-name="Ellipse 108" d="M31,1A30.008,30.008,0,0,0,19.323,58.643,30.008,30.008,0,0,0,42.677,3.357,29.811,29.811,0,0,0,31,1m0-1A31,31,0,1,1,0,31,31,31,0,0,1,31,0Z" transform="translate(0 0)" fill="#fff"/>
    </g>
    <rect id="Rectangle_1403" data-name="Rectangle 1403" width="70" height="70" transform="translate(445 171)" fill="#fff" opacity="0"/>
  </g>
</svg>
