<svg xmlns="http://www.w3.org/2000/svg" width="38" height="38" viewBox="0 0 38 38">
  <g id="rim" transform="translate(-376.708 -83.319)">
    <g id="Groupe_2554" data-name="Groupe 2554" transform="translate(349.597 19.769)">
      <path id="Ellipse_450" data-name="Ellipse 450" d="M16.254-.5A16.754,16.754,0,0,1,28.1,28.1,16.754,16.754,0,1,1,4.407,4.407,16.644,16.644,0,0,1,16.254-.5Zm0,32.508A15.754,15.754,0,1,0,.5,16.254,15.772,15.772,0,0,0,16.254,32.008Z" transform="translate(30.111 66.296)" fill="#fff"/>
      <path id="Ellipse_451" data-name="Ellipse 451" d="M3.345-.5A3.845,3.845,0,1,1-.5,3.345,3.85,3.85,0,0,1,3.345-.5Zm0,6.691A2.845,2.845,0,1,0,.5,3.345,2.849,2.849,0,0,0,3.345,6.191Z" transform="translate(43.065 79.205)" fill="#fff"/>
      <path id="Tracé_1367" data-name="Tracé 1367" d="M61.207,71.421a14.979,14.979,0,0,1,6.933,1.76.9.9,0,0,1,.257,1.385l-5.04,5.746a2.771,2.771,0,0,1-4.181-.017L54.21,74.539a.895.895,0,0,1,.227-1.359A13.865,13.865,0,0,1,61.207,71.421Zm6.351,2.586a13.949,13.949,0,0,0-6.351-1.586,12.881,12.881,0,0,0-6.157,1.56l4.883,5.661a1.771,1.771,0,0,0,2.672.011Z" transform="translate(-14.895 -3.437)" fill="#fff"/>
      <path id="Tracé_1368" data-name="Tracé 1368" d="M61.09,130.853a13.865,13.865,0,0,1-6.77-1.758.895.895,0,0,1-.227-1.359l4.966-5.757a2.771,2.771,0,0,1,4.181-.017l5.039,5.746a.894.894,0,0,1,.207.76.884.884,0,0,1-.464.625A14.977,14.977,0,0,1,61.09,130.853Zm-6.157-2.56a12.881,12.881,0,0,0,6.157,1.56,13.949,13.949,0,0,0,6.35-1.586l-4.952-5.646a1.771,1.771,0,0,0-2.672.011Z" transform="translate(-14.824 -33.737)" fill="#fff"/>
      <path id="Tracé_1369" data-name="Tracé 1369" d="M92.136,90.06a.9.9,0,0,1,.773.445,14.171,14.171,0,0,1,0,13.7.9.9,0,0,1-1.385.257l-5.746-5.039a2.771,2.771,0,0,1,.017-4.181l5.757-4.967A.9.9,0,0,1,92.136,90.06Zm-.054,13.566a13.175,13.175,0,0,0,.025-12.508L86.447,96a1.771,1.771,0,0,0-.011,2.672Z" transform="translate(-33.737 -14.824)" fill="#fff"/>
      <path id="Tracé_1370" data-name="Tracé 1370" d="M37.91,90.06h0a.9.9,0,0,1,.585.217l5.757,4.967a2.771,2.771,0,0,1,.017,4.181l-5.746,5.039a.9.9,0,0,1-1.385-.257,14.171,14.171,0,0,1,0-13.7A.9.9,0,0,1,37.91,90.06Zm.054,13.566,5.646-4.952A1.771,1.771,0,0,0,43.6,96l-5.661-4.884A13.175,13.175,0,0,0,37.964,103.626Z" transform="translate(-3.524 -14.824)" fill="#fff"/>
      <path id="Ellipse_454" data-name="Ellipse 454" d="M1.04-.5A1.54,1.54,0,1,1-.5,1.04,1.542,1.542,0,0,1,1.04-.5Zm0,2.081A.54.54,0,1,0,.5,1.04.541.541,0,0,0,1.04,1.581Z" transform="translate(41.19 77.124)" fill="#fff"/>
      <path id="Tracé_1371" data-name="Tracé 1371" d="M1.04-.5A1.54,1.54,0,1,1-.5,1.04,1.542,1.542,0,0,1,1.04-.5Zm0,2.081A.54.54,0,1,0,.5,1.04.541.541,0,0,0,1.04,1.581Z" transform="translate(49.514 77.124)" fill="#fff"/>
      <path id="Tracé_1372" data-name="Tracé 1372" d="M1.04-.5A1.54,1.54,0,1,1-.5,1.04,1.542,1.542,0,0,1,1.04-.5Zm0,2.081A.54.54,0,1,0,.5,1.04.541.541,0,0,0,1.04,1.581Z" transform="translate(49.756 85.7)" fill="#fff"/>
      <path id="Tracé_1373" data-name="Tracé 1373" d="M1.04-.5A1.54,1.54,0,1,1-.5,1.04,1.542,1.542,0,0,1,1.04-.5Zm0,2.081A.54.54,0,1,0,.5,1.04.541.541,0,0,0,1.04,1.581Z" transform="translate(40.984 85.7)" fill="#fff"/>
    </g>
    <rect id="Rectangle_1397" data-name="Rectangle 1397" width="38" height="38" transform="translate(376.708 83.319)" fill="#fff" opacity="0"/>
  </g>
</svg>
