<svg xmlns="http://www.w3.org/2000/svg" width="38" height="38" viewBox="0 0 38 38">
  <g id="seat" transform="translate(-466 -78)">
    <g id="Groupe_2555" data-name="Groupe 2555" transform="translate(248.683 -334.161)">
      <path id="Tracé_1374" data-name="Tracé 1374" d="M234.408,446.238a.5.5,0,0,1-.491-.408L231.7,434c-.826-2.081-2.042-3.348-3.424-3.568a2.362,2.362,0,0,0-1.581.361l-.746.454,3.13,13.688a.5.5,0,1,1-.975.223l-3.158-13.809a.827.827,0,0,1,.377-.892l.852-.518a3.359,3.359,0,0,1,2.258-.494c1.749.278,3.241,1.77,4.2,4.2a.879.879,0,0,1,.045.157l2.214,11.843a.5.5,0,0,1-.492.592Z" transform="translate(-1.802 -7.379)" fill="#fff"/>
      <path id="Tracé_1375" data-name="Tracé 1375" d="M223.637,424.359a.5.5,0,0,1-.485-.379l-1.288-5.172a1.486,1.486,0,0,1,1.074-1.8l.979-.249c.1-.026.2-.047.306-.064,1.531-.246,3.013,1.063,3.741,2.384a2.807,2.807,0,0,1-1.092,3.753.5.5,0,0,1-.5-.866,1.8,1.8,0,0,0,.717-2.4c-.669-1.212-1.833-2.02-2.707-1.88-.073.012-.145.027-.217.045l-.979.249a.486.486,0,0,0-.351.591l1.289,5.175a.5.5,0,0,1-.486.621Z" fill="#fff"/>
      <path id="Tracé_1376" data-name="Tracé 1376" d="M236.07,475.619a1.269,1.269,0,0,1-1.243-.991l-.873-3.8a2.606,2.606,0,1,1,5.079-1.165l.007.037.878,5.833-3.62.069A1.278,1.278,0,0,1,236.07,475.619Zm.426-6.985a1.607,1.607,0,0,0-1.567,1.966l.873,3.8a.279.279,0,0,0,.331.207l.051-.012,2.578-.049-.706-4.686A1.6,1.6,0,0,0,236.5,468.634Z" transform="translate(-6.987 -29.505)" fill="#fff"/>
      <path id="Tracé_1377" data-name="Tracé 1377" d="M262.209,470.215H243.837l-1.16-4.709,17.112-2.522h.037a4.071,4.071,0,0,1,2.68,1.618,4.906,4.906,0,0,1,1.382,2.909v.926A1.733,1.733,0,0,1,262.209,470.215Zm-17.588-1h17.588a.734.734,0,0,0,.679-.778v-.926c0-1.241-1.936-3.483-3.03-3.527l-15.947,2.351Z" transform="translate(-12.142 -26.813)" fill="#fff"/>
      <path id="Tracé_1378" data-name="Tracé 1378" d="M261.7,481.412h-16.53l-.547-3.633h18.825l.113.343a2.5,2.5,0,0,1-.344,2.664A2.073,2.073,0,0,1,261.7,481.412Zm-15.669-1H261.7a1.073,1.073,0,0,0,.788-.309,1.4,1.4,0,0,0,.221-1.324H245.786Z" transform="translate(-13.248 -35.377)" fill="#fff"/>
    </g>
    <rect id="Rectangle_1426" data-name="Rectangle 1426" width="38" height="38" transform="translate(466 78)" fill="#fff" opacity="0"/>
  </g>
</svg>
